<svg width="140" height="140" viewBox="0 0 140 140" fill="none" xmlns="http://www.w3.org/2000/svg">
<g clip-path="url(#clip0_193_33)">
<path d="M16.4706 0H8.23529V9.33333H16.4706V0Z" fill="black"/>
<path d="M24.7059 0H16.4706V9.33333H24.7059V0Z" fill="black"/>
<path d="M32.9412 0H24.7059V9.33333H32.9412V0Z" fill="black"/>
<path d="M41.1765 0H32.9412V9.33333H41.1765V0Z" fill="black"/>
<path d="M49.4117 0H41.1765V9.33333H49.4117V0Z" fill="black"/>
<path d="M57.647 0H49.4117V9.33333H57.647V0Z" fill="black"/>
<path d="M65.8823 0H57.647V9.33333H65.8823V0Z" fill="black"/>
<path d="M74.1176 0H65.8823V9.33333H74.1176V0Z" fill="black"/>
<path d="M82.353 0H74.1177V9.33333H82.353V0Z" fill="black"/>
<path d="M90.5882 0H82.3529V9.33333H90.5882V0Z" fill="black"/>
<path d="M98.8236 0H90.5883V9.33333H98.8236V0Z" fill="black"/>
<path d="M107.059 0H98.8235V9.33333H107.059V0Z" fill="black"/>
<path d="M115.294 0H107.059V9.33333H115.294V0Z" fill="black"/>
<path d="M123.529 0H115.294V9.33333H123.529V0Z" fill="black"/>
<path d="M131.765 0H123.529V9.33333H131.765V0Z" fill="black"/>
<path d="M8.23529 9.33334H0V18.6667H8.23529V9.33334Z" fill="black"/>
<path d="M16.4706 9.33334H8.23529V18.6667H16.4706V9.33334Z" fill="#212121"/>
<path d="M24.7059 9.33334H16.4706V18.6667H24.7059V9.33334Z" fill="#212121"/>
<path d="M32.9412 9.33334H24.7059V18.6667H32.9412V9.33334Z" fill="#212121"/>
<path d="M41.1765 9.33334H32.9412V18.6667H41.1765V9.33334Z" fill="#212121"/>
<path d="M49.4117 9.33334H41.1765V18.6667H49.4117V9.33334Z" fill="#212121"/>
<path d="M57.647 9.33334H49.4117V18.6667H57.647V9.33334Z" fill="#212121"/>
<path d="M65.8823 9.33334H57.647V18.6667H65.8823V9.33334Z" fill="#212121"/>
<path d="M74.1176 9.33334H65.8823V18.6667H74.1176V9.33334Z" fill="#212121"/>
<path d="M82.353 9.33334H74.1177V18.6667H82.353V9.33334Z" fill="#424242"/>
<path d="M90.5882 9.33334H82.3529V18.6667H90.5882V9.33334Z" fill="#424242"/>
<path d="M98.8236 9.33334H90.5883V18.6667H98.8236V9.33334Z" fill="#424242"/>
<path d="M107.059 9.33334H98.8235V18.6667H107.059V9.33334Z" fill="#212121"/>
<path d="M115.294 9.33334H107.059V18.6667H115.294V9.33334Z" fill="#212121"/>
<path d="M123.529 9.33334H115.294V18.6667H123.529V9.33334Z" fill="#424242"/>
<path d="M131.765 9.33334H123.529V18.6667H131.765V9.33334Z" fill="#212121"/>
<path d="M140 9.33334H131.765V18.6667H140V9.33334Z" fill="black"/>
<path d="M8.23529 18.6667H0V28H8.23529V18.6667Z" fill="black"/>
<path d="M16.4706 18.6667H8.23529V28H16.4706V18.6667Z" fill="#212121"/>
<path d="M24.7059 18.6667H16.4706V28H24.7059V18.6667Z" fill="#212121"/>
<path d="M32.9412 18.6667H24.7059V28H32.9412V18.6667Z" fill="#212121"/>
<path d="M41.1765 18.6667H32.9412V28H41.1765V18.6667Z" fill="#212121"/>
<path d="M49.4117 18.6667H41.1765V28H49.4117V18.6667Z" fill="#212121"/>
<path d="M57.647 18.6667H49.4117V28H57.647V18.6667Z" fill="#212121"/>
<path d="M65.8823 18.6667H57.647V28H65.8823V18.6667Z" fill="#212121"/>
<path d="M74.1176 18.6667H65.8823V28H74.1176V18.6667Z" fill="#424242"/>
<path d="M82.353 18.6667H74.1177V28H82.353V18.6667Z" fill="#424242"/>
<path d="M90.5882 18.6667H82.3529V28H90.5882V18.6667Z" fill="#424242"/>
<path d="M98.8236 18.6667H90.5883V28H98.8236V18.6667Z" fill="#212121"/>
<path d="M107.059 18.6667H98.8235V28H107.059V18.6667Z" fill="#212121"/>
<path d="M115.294 18.6667H107.059V28H115.294V18.6667Z" fill="#424242"/>
<path d="M123.529 18.6667H115.294V28H123.529V18.6667Z" fill="#212121"/>
<path d="M131.765 18.6667H123.529V28H131.765V18.6667Z" fill="#212121"/>
<path d="M140 18.6667H131.765V28H140V18.6667Z" fill="black"/>
<path d="M8.23529 28H0V37.3333H8.23529V28Z" fill="black"/>
<path d="M16.4706 28H8.23529V37.3333H16.4706V28Z" fill="#212121"/>
<path d="M24.7059 28H16.4706V37.3333H24.7059V28Z" fill="#212121"/>
<path d="M32.9412 28H24.7059V37.3333H32.9412V28Z" fill="#212121"/>
<path d="M41.1765 28H32.9412V37.3333H41.1765V28Z" fill="#212121"/>
<path d="M49.4117 28H41.1765V37.3333H49.4117V28Z" fill="#212121"/>
<path d="M57.647 28H49.4117V37.3333H57.647V28Z" fill="#212121"/>
<path d="M65.8823 28H57.647V37.3333H65.8823V28Z" fill="#424242"/>
<path d="M74.1176 28H65.8823V37.3333H74.1176V28Z" fill="#424242"/>
<path d="M82.353 28H74.1177V37.3333H82.353V28Z" fill="#424242"/>
<path d="M90.5882 28H82.3529V37.3333H90.5882V28Z" fill="#212121"/>
<path d="M98.8236 28H90.5883V37.3333H98.8236V28Z" fill="#212121"/>
<path d="M107.059 28H98.8235V37.3333H107.059V28Z" fill="#424242"/>
<path d="M115.294 28H107.059V37.3333H115.294V28Z" fill="#212121"/>
<path d="M123.529 28H115.294V37.3333H123.529V28Z" fill="#212121"/>
<path d="M131.765 28H123.529V37.3333H131.765V28Z" fill="#212121"/>
<path d="M140 28H131.765V37.3333H140V28Z" fill="black"/>
<path d="M8.23529 37.3333H0V46.6667H8.23529V37.3333Z" fill="black"/>
<path d="M16.4706 37.3333H8.23529V46.6667H16.4706V37.3333Z" fill="#212121"/>
<path d="M24.7059 37.3333H16.4706V46.6667H24.7059V37.3333Z" fill="#212121"/>
<path d="M32.9412 37.3333H24.7059V46.6667H32.9412V37.3333Z" fill="#212121"/>
<path d="M41.1765 37.3333H32.9412V46.6667H41.1765V37.3333Z" fill="#212121"/>
<path d="M49.4117 37.3333H41.1765V46.6667H49.4117V37.3333Z" fill="#212121"/>
<path d="M57.647 37.3333H49.4117V46.6667H57.647V37.3333Z" fill="#424242"/>
<path d="M65.8823 37.3333H57.647V46.6667H65.8823V37.3333Z" fill="#424242"/>
<path d="M74.1176 37.3333H65.8823V46.6667H74.1176V37.3333Z" fill="#424242"/>
<path d="M82.353 37.3333H74.1177V46.6667H82.353V37.3333Z" fill="#212121"/>
<path d="M90.5882 37.3333H82.3529V46.6667H90.5882V37.3333Z" fill="#212121"/>
<path d="M98.8236 37.3333H90.5883V46.6667H98.8236V37.3333Z" fill="#424242"/>
<path d="M107.059 37.3333H98.8235V46.6667H107.059V37.3333Z" fill="#212121"/>
<path d="M115.294 37.3333H107.059V46.6667H115.294V37.3333Z" fill="#212121"/>
<path d="M123.529 37.3333H115.294V46.6667H123.529V37.3333Z" fill="#212121"/>
<path d="M131.765 37.3333H123.529V46.6667H131.765V37.3333Z" fill="#212121"/>
<path d="M140 37.3333H131.765V46.6667H140V37.3333Z" fill="black"/>
<path d="M8.23529 46.6667H0V56H8.23529V46.6667Z" fill="black"/>
<path d="M16.4706 46.6667H8.23529V56H16.4706V46.6667Z" fill="#212121"/>
<path d="M24.7059 46.6667H16.4706V56H24.7059V46.6667Z" fill="#212121"/>
<path d="M32.9412 46.6667H24.7059V56H32.9412V46.6667Z" fill="#212121"/>
<path d="M41.1765 46.6667H32.9412V56H41.1765V46.6667Z" fill="#212121"/>
<path d="M49.4117 46.6667H41.1765V56H49.4117V46.6667Z" fill="#424242"/>
<path d="M57.647 46.6667H49.4117V56H57.647V46.6667Z" fill="#424242"/>
<path d="M65.8823 46.6667H57.647V56H65.8823V46.6667Z" fill="#424242"/>
<path d="M74.1176 46.6667H65.8823V56H74.1176V46.6667Z" fill="#212121"/>
<path d="M82.353 46.6667H74.1177V56H82.353V46.6667Z" fill="#212121"/>
<path d="M90.5882 46.6667H82.3529V56H90.5882V46.6667Z" fill="#424242"/>
<path d="M98.8236 46.6667H90.5883V56H98.8236V46.6667Z" fill="#212121"/>
<path d="M107.059 46.6667H98.8235V56H107.059V46.6667Z" fill="#212121"/>
<path d="M115.294 46.6667H107.059V56H115.294V46.6667Z" fill="#212121"/>
<path d="M123.529 46.6667H115.294V56H123.529V46.6667Z" fill="#212121"/>
<path d="M131.765 46.6667H123.529V56H131.765V46.6667Z" fill="#212121"/>
<path d="M140 46.6667H131.765V56H140V46.6667Z" fill="black"/>
<path d="M8.23529 56H0V65.3333H8.23529V56Z" fill="black"/>
<path d="M16.4706 56H8.23529V65.3333H16.4706V56Z" fill="#212121"/>
<path d="M24.7059 56H16.4706V65.3333H24.7059V56Z" fill="#212121"/>
<path d="M32.9412 56H24.7059V65.3333H32.9412V56Z" fill="#212121"/>
<path d="M41.1765 56H32.9412V65.3333H41.1765V56Z" fill="#424242"/>
<path d="M49.4117 56H41.1765V65.3333H49.4117V56Z" fill="#424242"/>
<path d="M57.647 56H49.4117V65.3333H57.647V56Z" fill="#424242"/>
<path d="M65.8823 56H57.647V65.3333H65.8823V56Z" fill="#212121"/>
<path d="M74.1176 56H65.8823V65.3333H74.1176V56Z" fill="#212121"/>
<path d="M82.353 56H74.1177V65.3333H82.353V56Z" fill="#424242"/>
<path d="M90.5882 56H82.3529V65.3333H90.5882V56Z" fill="#212121"/>
<path d="M98.8236 56H90.5883V65.3333H98.8236V56Z" fill="#212121"/>
<path d="M107.059 56H98.8235V65.3333H107.059V56Z" fill="#212121"/>
<path d="M115.294 56H107.059V65.3333H115.294V56Z" fill="#212121"/>
<path d="M123.529 56H115.294V65.3333H123.529V56Z" fill="#212121"/>
<path d="M131.765 56H123.529V65.3333H131.765V56Z" fill="#212121"/>
<path d="M140 56H131.765V65.3333H140V56Z" fill="black"/>
<path d="M8.23529 65.3333H0V74.6667H8.23529V65.3333Z" fill="black"/>
<path d="M16.4706 65.3333H8.23529V74.6667H16.4706V65.3333Z" fill="#212121"/>
<path d="M24.7059 65.3333H16.4706V74.6667H24.7059V65.3333Z" fill="#212121"/>
<path d="M32.9412 65.3333H24.7059V74.6667H32.9412V65.3333Z" fill="#424242"/>
<path d="M41.1765 65.3333H32.9412V74.6667H41.1765V65.3333Z" fill="#424242"/>
<path d="M49.4117 65.3333H41.1765V74.6667H49.4117V65.3333Z" fill="#424242"/>
<path d="M57.647 65.3333H49.4117V74.6667H57.647V65.3333Z" fill="#212121"/>
<path d="M65.8823 65.3333H57.647V74.6667H65.8823V65.3333Z" fill="#212121"/>
<path d="M74.1176 65.3333H65.8823V74.6667H74.1176V65.3333Z" fill="#424242"/>
<path d="M82.353 65.3333H74.1177V74.6667H82.353V65.3333Z" fill="#212121"/>
<path d="M90.5882 65.3333H82.3529V74.6667H90.5882V65.3333Z" fill="#212121"/>
<path d="M98.8236 65.3333H90.5883V74.6667H98.8236V65.3333Z" fill="#212121"/>
<path d="M107.059 65.3333H98.8235V74.6667H107.059V65.3333Z" fill="#212121"/>
<path d="M115.294 65.3333H107.059V74.6667H115.294V65.3333Z" fill="#212121"/>
<path d="M123.529 65.3333H115.294V74.6667H123.529V65.3333Z" fill="#212121"/>
<path d="M131.765 65.3333H123.529V74.6667H131.765V65.3333Z" fill="#212121"/>
<path d="M140 65.3333H131.765V74.6667H140V65.3333Z" fill="black"/>
<path d="M8.23529 74.6667H0V84H8.23529V74.6667Z" fill="black"/>
<path d="M16.4706 74.6667H8.23529V84H16.4706V74.6667Z" fill="#212121"/>
<path d="M24.7059 74.6667H16.4706V84H24.7059V74.6667Z" fill="#424242"/>
<path d="M32.9412 74.6667H24.7059V84H32.9412V74.6667Z" fill="#424242"/>
<path d="M41.1765 74.6667H32.9412V84H41.1765V74.6667Z" fill="#424242"/>
<path d="M49.4117 74.6667H41.1765V84H49.4117V74.6667Z" fill="#212121"/>
<path d="M57.647 74.6667H49.4117V84H57.647V74.6667Z" fill="#212121"/>
<path d="M65.8823 74.6667H57.647V84H65.8823V74.6667Z" fill="#424242"/>
<path d="M74.1176 74.6667H65.8823V84H74.1176V74.6667Z" fill="#212121"/>
<path d="M82.353 74.6667H74.1177V84H82.353V74.6667Z" fill="#212121"/>
<path d="M90.5882 74.6667H82.3529V84H90.5882V74.6667Z" fill="#212121"/>
<path d="M98.8236 74.6667H90.5883V84H98.8236V74.6667Z" fill="#212121"/>
<path d="M107.059 74.6667H98.8235V84H107.059V74.6667Z" fill="#212121"/>
<path d="M115.294 74.6667H107.059V84H115.294V74.6667Z" fill="#212121"/>
<path d="M123.529 74.6667H115.294V84H123.529V74.6667Z" fill="#212121"/>
<path d="M131.765 74.6667H123.529V84H131.765V74.6667Z" fill="#212121"/>
<path d="M140 74.6667H131.765V84H140V74.6667Z" fill="black"/>
<path d="M8.23529 84H0V93.3333H8.23529V84Z" fill="black"/>
<path d="M16.4706 84H8.23529V93.3333H16.4706V84Z" fill="#D0A8BD"/>
<path d="M24.7059 84H16.4706V93.3333H24.7059V84Z" fill="#D0A8BD"/>
<path d="M32.9412 84H24.7059V93.3333H32.9412V84Z" fill="#D0A8BD"/>
<path d="M41.1765 84H32.9412V93.3333H41.1765V84Z" fill="#D0A8BD"/>
<path d="M49.4117 84H41.1765V93.3333H49.4117V84Z" fill="#D0A8BD"/>
<path d="M57.647 84H49.4117V93.3333H57.647V84Z" fill="#D0A8BD"/>
<path d="M65.8823 84H57.647V93.3333H65.8823V84Z" fill="#D0A8BD"/>
<path d="M74.1176 84H65.8823V93.3333H74.1176V84Z" fill="#D0A8BD"/>
<path d="M82.353 84H74.1177V93.3333H82.353V84Z" fill="#D0A8BD"/>
<path d="M90.5882 84H82.3529V93.3333H90.5882V84Z" fill="#D0A8BD"/>
<path d="M98.8236 84H90.5883V93.3333H98.8236V84Z" fill="#D0A8BD"/>
<path d="M107.059 84H98.8235V93.3333H107.059V84Z" fill="#D0A8BD"/>
<path d="M115.294 84H107.059V93.3333H115.294V84Z" fill="#D0A8BD"/>
<path d="M123.529 84H115.294V93.3333H123.529V84Z" fill="#D0A8BD"/>
<path d="M131.765 84H123.529V93.3333H131.765V84Z" fill="#D0A8BD"/>
<path d="M140 84H131.765V93.3333H140V84Z" fill="black"/>
<path d="M8.23529 93.3333H0V102.667H8.23529V93.3333Z" fill="black"/>
<path d="M16.4706 93.3333H8.23529V102.667H16.4706V93.3333Z" fill="#D0A8BD"/>
<path d="M24.7059 93.3333H16.4706V102.667H24.7059V93.3333Z" fill="#D0A8BD"/>
<path d="M32.9412 93.3333H24.7059V102.667H32.9412V93.3333Z" fill="#D0A8BD"/>
<path d="M41.1765 93.3333H32.9412V102.667H41.1765V93.3333Z" fill="#D0A8BD"/>
<path d="M49.4117 93.3333H41.1765V102.667H49.4117V93.3333Z" fill="#D0A8BD"/>
<path d="M57.647 93.3333H49.4117V102.667H57.647V93.3333Z" fill="#D0A8BD"/>
<path d="M65.8823 93.3333H57.647V102.667H65.8823V93.3333Z" fill="#D0A8BD"/>
<path d="M74.1176 93.3333H65.8823V102.667H74.1176V93.3333Z" fill="#D0A8BD"/>
<path d="M82.353 93.3333H74.1177V102.667H82.353V93.3333Z" fill="#D0A8BD"/>
<path d="M90.5882 93.3333H82.3529V102.667H90.5882V93.3333Z" fill="#D0A8BD"/>
<path d="M98.8236 93.3333H90.5883V102.667H98.8236V93.3333Z" fill="#D0A8BD"/>
<path d="M107.059 93.3333H98.8235V102.667H107.059V93.3333Z" fill="#D0A8BD"/>
<path d="M115.294 93.3333H107.059V102.667H115.294V93.3333Z" fill="#D0A8BD"/>
<path d="M123.529 93.3333H115.294V102.667H123.529V93.3333Z" fill="#D0A8BD"/>
<path d="M131.765 93.3333H123.529V102.667H131.765V93.3333Z" fill="#D0A8BD"/>
<path d="M140 93.3333H131.765V102.667H140V93.3333Z" fill="black"/>
<path d="M16.4706 102.667H8.23529V112H16.4706V102.667Z" fill="black"/>
<path d="M24.7059 102.667H16.4706V112H24.7059V102.667Z" fill="black"/>
<path d="M32.9412 102.667H24.7059V112H32.9412V102.667Z" fill="black"/>
<path d="M41.1765 102.667H32.9412V112H41.1765V102.667Z" fill="black"/>
<path d="M49.4117 102.667H41.1765V112H49.4117V102.667Z" fill="black"/>
<path d="M57.647 102.667H49.4117V112H57.647V102.667Z" fill="black"/>
<path d="M65.8823 102.667H57.647V112H65.8823V102.667Z" fill="black"/>
<path d="M74.1176 102.667H65.8823V112H74.1176V102.667Z" fill="black"/>
<path d="M82.353 102.667H74.1177V112H82.353V102.667Z" fill="black"/>
<path d="M90.5882 102.667H82.3529V112H90.5882V102.667Z" fill="black"/>
<path d="M98.8236 102.667H90.5883V112H98.8236V102.667Z" fill="black"/>
<path d="M107.059 102.667H98.8235V112H107.059V102.667Z" fill="black"/>
<path d="M115.294 102.667H107.059V112H115.294V102.667Z" fill="black"/>
<path d="M123.529 102.667H115.294V112H123.529V102.667Z" fill="black"/>
<path d="M131.765 102.667H123.529V112H131.765V102.667Z" fill="black"/>
<path d="M57.647 112H49.4117V121.333H57.647V112Z" fill="black"/>
<path d="M65.8823 112H57.647V121.333H65.8823V112Z" fill="#9E9E9E"/>
<path d="M74.1176 112H65.8823V121.333H74.1176V112Z" fill="#9E9E9E"/>
<path d="M82.353 112H74.1177V121.333H82.353V112Z" fill="#9E9E9E"/>
<path d="M90.5882 112H82.3529V121.333H90.5882V112Z" fill="black"/>
<path d="M49.4117 121.333H41.1765V130.667H49.4117V121.333Z" fill="black"/>
<path d="M57.647 121.333H49.4117V130.667H57.647V121.333Z" fill="#D0A8BD"/>
<path d="M65.8823 121.333H57.647V130.667H65.8823V121.333Z" fill="#D0A8BD"/>
<path d="M74.1176 121.333H65.8823V130.667H74.1176V121.333Z" fill="#D0A8BD"/>
<path d="M82.353 121.333H74.1177V130.667H82.353V121.333Z" fill="#D0A8BD"/>
<path d="M90.5882 121.333H82.3529V130.667H90.5882V121.333Z" fill="#D0A8BD"/>
<path d="M98.8236 121.333H90.5883V130.667H98.8236V121.333Z" fill="black"/>
<path d="M41.1765 130.667H32.9412V140H41.1765V130.667Z" fill="black"/>
<path d="M49.4117 130.667H41.1765V140H49.4117V130.667Z" fill="black"/>
<path d="M57.647 130.667H49.4117V140H57.647V130.667Z" fill="black"/>
<path d="M65.8823 130.667H57.647V140H65.8823V130.667Z" fill="black"/>
<path d="M74.1176 130.667H65.8823V140H74.1176V130.667Z" fill="black"/>
<path d="M82.353 130.667H74.1177V140H82.353V130.667Z" fill="black"/>
<path d="M90.5882 130.667H82.3529V140H90.5882V130.667Z" fill="black"/>
<path d="M98.8236 130.667H90.5883V140H98.8236V130.667Z" fill="black"/>
<path d="M107.059 130.667H98.8235V140H107.059V130.667Z" fill="black"/>
</g>
<defs>
<clipPath id="clip0_193_33">
<rect width="140" height="140" fill="white"/>
</clipPath>
</defs>
</svg>
